<?xml version="1.0" encoding="UTF-8"?><svg id="Camada_2" xmlns="http://www.w3.org/2000/svg" viewBox="0 0 298 367.19"><defs><style>.cls-1{fill:none;stroke:#000;stroke-miterlimit:10;stroke-width:6px;}.cls-2{fill:#ed1c24;}</style></defs><g id="Layer_1"><g><rect class="cls-2" y="68.19" width="215" height="215"/><path class="cls-1" d="M64.87,89.7s34.68-195.07,84.87,0"/><circle cx="64.87" cy="94.26" r="9.13"/><circle cx="149.75" cy="94.26" r="9.13"/><path d="M148.4,155.75c0,20.25-13.5,36.16-36.32,36.16h-22.82v37.29h-15.43v-52.71h38.41c11.25,0,20.73-5.79,20.73-19.77s-10.45-20.09-21.7-20.09h-37.45v-15.43h33.43c28.13,0,41.14,14.14,41.14,34.55Z"/><circle cx="214.5" cy="283.69" r="83.5"/><path class="cls-2" d="M243.33,297.57h13.03c-5.34,18.03-20.92,31.06-40.91,31.06-24.86,0-45.01-20.15-45.01-45.01s20.15-45.01,45.01-45.01c17.79,0,31.4,9.94,38.86,24.6l-12.69,3.66c-4.97-9.42-14.39-15.7-26.17-15.7-17.92,0-32.45,14.52-32.45,32.45s14.52,32.45,32.45,32.45c13.71,0,23.55-7.64,27.88-18.5Zm15.04-13.94c0,2.86-.25,5.66-.71,8.37h-45.34v-12.56l45.79,.13c.13,1.18,.26,2.62,.26,4.06Z"/></g></g></svg>